<?xml version="1.0" encoding="UTF-8" standalone="no"?>
<svg xmlns:dc="http://purl.org/dc/elements/1.1/" xmlns:cc="http://creativecommons.org/ns#" xmlns:rdf="http://www.w3.org/1999/02/22-rdf-syntax-ns#" xmlns:svg="http://www.w3.org/2000/svg" xmlns="http://www.w3.org/2000/svg" id="svg48" version="1.1" fill="none" viewBox="0 0 1440 497" height="497" width="1440">
  <metadata id="metadata52">
    <rdf:RDF>
      <cc:Work rdf:about="">
        <dc:format>image/svg+xml</dc:format>
        <dc:type rdf:resource="http://purl.org/dc/dcmitype/StillImage" />
      </cc:Work>
    </rdf:RDF>
  </metadata>
  <path id="path2" fill="url(#paint0_linear)" d="M0 -10L1440 -157.516V349.484L0 497V-10Z" clip-rule="evenodd" fill-rule="evenodd" />
  <mask height="655" width="1441" y="-158" x="0" maskUnits="userSpaceOnUse" mask-type="alpha" id="mask0">
    <path id="path4" fill="white" d="M0 -10L1440 -157.516V349.484L0 497V-10Z" clip-rule="evenodd" fill-rule="evenodd" />
  </mask>
  <g id="g39" mask="url(#mask0)">
    <path id="path7" fill-opacity="0.5" fill="#1177FF" d="M0 294L290.057 257V368L0 405V294Z" clip-rule="evenodd" fill-rule="evenodd" />
    <path id="path9" fill-opacity="0.5" fill="#33BEFF" d="M134.743 388L424.8 351V462L134.743 499V388Z" clip-rule="evenodd" fill-rule="evenodd" />
    <path id="path11" fill-opacity="0.8" fill="#26A1FF" d="M290.057 257L580.114 220V331L290.057 368V257Z" clip-rule="evenodd" fill-rule="evenodd" />
    <path id="path13" fill-opacity="0.8" fill="#1177FF" d="M-43.2 190L246.857 153V264L-43.2 301V190Z" clip-rule="evenodd" fill-rule="evenodd" />
    <path id="path15" stroke-width="3" stroke-opacity="0.3" stroke="#26A1FF" d="M21 49.5C26.799 49.5 31.5 44.799 31.5 39C31.5 33.201 26.799 28.5 21 28.5C15.201 28.5 10.5 33.201 10.5 39C10.5 44.799 15.201 49.5 21 49.5Z" clip-rule="evenodd" fill-rule="evenodd" />
    <path id="path17" stroke-width="3" stroke-opacity="0.3" stroke="#26A1FF" d="M211 25.5C216.799 25.5 221.5 20.799 221.5 15C221.5 9.20101 216.799 4.5 211 4.5C205.201 4.5 200.5 9.20101 200.5 15C200.5 20.799 205.201 25.5 211 25.5Z" clip-rule="evenodd" fill-rule="evenodd" />
    <path id="path19" stroke-width="3" stroke-opacity="0.3" stroke="#26A1FF" d="M162 107.5C167.799 107.5 172.5 102.799 172.5 97C172.5 91.201 167.799 86.5 162 86.5C156.201 86.5 151.5 91.201 151.5 97C151.5 102.799 156.201 107.5 162 107.5Z" clip-rule="evenodd" fill-rule="evenodd" />
    <path id="path21" stroke-width="3" stroke-opacity="0.3" stroke="#26A1FF" d="M109.562 40.3716C109.583 40.4776 109.639 40.5737 109.72 40.6455C109.927 40.8287 110.243 40.8097 110.426 40.6031L123.428 25.9407C123.479 25.8827 123.516 25.8134 123.536 25.7384C123.608 25.4717 123.45 25.1975 123.183 25.126L106.252 20.5895C106.177 20.5694 106.099 20.567 106.023 20.5826C105.752 20.638 105.578 20.9022 105.633 21.1727L109.562 40.3716Z" clip-rule="evenodd" fill-rule="evenodd" />
    <path id="path23" stroke-width="3" stroke-opacity="0.3" stroke="#26A1FF" d="M130.628 144.562C130.522 144.583 130.426 144.639 130.355 144.72C130.171 144.927 130.19 145.243 130.397 145.426L145.059 158.428C145.117 158.479 145.187 158.516 145.262 158.536C145.528 158.608 145.802 158.45 145.874 158.183L150.411 141.252C150.431 141.177 150.433 141.099 150.417 141.023C150.362 140.752 150.098 140.578 149.827 140.633L130.628 144.562Z" clip-rule="evenodd" fill-rule="evenodd" />
    <path id="path25" stroke-width="3" stroke-opacity="0.3" stroke="#26A1FF" d="M26.9031 123.129C26.7951 123.122 26.6879 123.151 26.5976 123.211C26.3672 123.363 26.3037 123.673 26.4559 123.904L37.2535 140.257C37.2962 140.322 37.3535 140.376 37.4207 140.415C37.6599 140.553 37.9657 140.471 38.1037 140.232L46.8677 125.052C46.9065 124.985 46.9291 124.91 46.9338 124.832C46.9503 124.556 46.7403 124.32 46.4646 124.303L26.9031 123.129Z" clip-rule="evenodd" fill-rule="evenodd" />
    <path id="path27" stroke-width="3" stroke-opacity="0.3" stroke="#26A1FF" d="M238.189 46.2275C238.224 46.1249 238.224 46.0139 238.189 45.9113C238.102 45.6493 237.819 45.5077 237.557 45.595L218.966 51.7921C218.892 51.8166 218.825 51.858 218.77 51.9129C218.575 52.1081 218.575 52.4247 218.77 52.62L231.164 65.014C231.219 65.0689 231.286 65.1103 231.36 65.1348C231.622 65.2222 231.905 65.0806 231.992 64.8186L238.189 46.2275Z" clip-rule="evenodd" fill-rule="evenodd" />
    <path id="path29" stroke-width="3" stroke-opacity="0.3" stroke="#26A1FF" d="M54.7809 72.8954C53.8243 72.3431 53.4965 71.1199 54.0488 70.1633L67.5488 46.7806C68.1011 45.8241 69.3243 45.4963 70.2809 46.0486L79.8072 51.5486C80.7637 52.1009 81.0915 53.3241 80.5392 54.2806L67.0392 77.6633C66.4869 78.6199 65.2637 78.9477 64.3072 78.3954L54.7809 72.8954Z" clip-rule="evenodd" fill-rule="evenodd" />
    <path id="path31" stroke-width="3" stroke-opacity="0.3" stroke="#26A1FF" d="M235.781 138.895C234.824 138.343 234.497 137.12 235.049 136.163L248.549 112.781C249.101 111.824 250.324 111.496 251.281 112.049L260.807 117.549C261.764 118.101 262.091 119.324 261.539 120.281L248.039 143.663C247.487 144.62 246.264 144.948 245.307 144.395L235.781 138.895Z" clip-rule="evenodd" fill-rule="evenodd" />
    <path id="path33" stroke-width="3" stroke-opacity="0.3" stroke="#26A1FF" d="M174.281 62.3954C173.324 62.9477 172.101 62.6199 171.549 61.6633L158.049 38.2806C157.497 37.3241 157.824 36.1009 158.781 35.5486L168.307 30.0486C169.264 29.4963 170.487 29.8241 171.039 30.7806L184.539 54.1633C185.091 55.1199 184.764 56.3431 183.807 56.8954L174.281 62.3954Z" clip-rule="evenodd" fill-rule="evenodd" />
    <path id="path35" stroke-width="3" stroke-opacity="0.3" stroke="#26A1FF" d="M108.365 119.071C107.584 119.852 106.318 119.852 105.537 119.071L86.4448 99.9794C85.6637 99.1983 85.6637 97.932 86.4448 97.151L94.2229 89.3728C95.004 88.5917 96.2703 88.5917 97.0514 89.3728L116.143 108.465C116.924 109.246 116.924 110.512 116.143 111.293L108.365 119.071Z" clip-rule="evenodd" fill-rule="evenodd" />
    <path id="path37" fill-opacity="0.3" fill="#26A1FF" d="M73.7172 168.267C73.1543 169.528 73.72 171.006 74.9808 171.569C76.2415 172.132 77.7199 171.566 78.2828 170.305L73.7172 168.267ZM89.5728 145.019C90.1357 143.758 89.57 142.28 88.3093 141.717C87.0485 141.154 85.5701 141.72 85.0072 142.981L89.5728 145.019ZM185.717 151.267C185.154 152.528 185.72 154.006 186.981 154.569C188.242 155.132 189.72 154.566 190.283 153.305L185.717 151.267ZM201.573 128.019C202.136 126.758 201.57 125.28 200.309 124.717C199.049 124.154 197.57 124.72 197.007 125.981L201.573 128.019ZM78.2828 170.305L89.5728 145.019L85.0072 142.981L73.7172 168.267L78.2828 170.305ZM190.283 153.305L201.573 128.019L197.007 125.981L185.717 151.267L190.283 153.305Z" />
  </g>
  <defs id="defs46">
    <linearGradient gradientUnits="userSpaceOnUse" y2="470.562" x2="1431.01" y1="-42.5" x1="-7.0153e-06" id="paint0_linear">
      <stop id="stop41" stop-color="#003EB2" />
      <stop id="stop43" stop-color="#33BEFF" offset="1" />
    </linearGradient>
  </defs>
</svg>
